<?xml version="1.0" encoding="UTF-8" standalone="no"?>
<!DOCTYPE svg PUBLIC "-//W3C//DTD SVG 1.1//EN"
 "http://www.w3.org/Graphics/SVG/1.1/DTD/svg11.dtd">
<!-- Generated by graphviz version 14.0.2 (20251019.1705)
 -->
<!-- Title: main.cpp Pages: 1 -->
<svg width="117pt" height="140pt"
 viewBox="0.00 0.00 117.00 140.00" xmlns="http://www.w3.org/2000/svg" xmlns:xlink="http://www.w3.org/1999/xlink">
<g id="graph0" class="graph" transform="scale(1 1) rotate(0) translate(4 136)">
<title>main.cpp</title>
<!-- Node1 -->
<g id="Node000001" class="node">
<title>Node1</title>
<g id="a_Node000001"><a xlink:title=" ">
<polygon fill="#999999" stroke="#666666" points="78.5,-132 22.75,-132 22.75,-112 78.5,-112 78.5,-132"/>
<text xml:space="preserve" text-anchor="middle" x="50.62" y="-118.5" font-family="Helvetica,sans-Serif" font-size="10.00">main.cpp</text>
</a>
</g>
</g>
<!-- Node2 -->
<g id="Node000002" class="node">
<title>Node2</title>
<g id="a_Node000002"><a xlink:href="pid_8h.html" target="_top" xlink:title=" ">
<polygon fill="white" stroke="#666666" points="38.12,-76 1.12,-76 1.12,-56 38.12,-56 38.12,-76"/>
<text xml:space="preserve" text-anchor="middle" x="19.62" y="-62.5" font-family="Helvetica,sans-Serif" font-size="10.00">pid.h</text>
</a>
</g>
</g>
<!-- Node1&#45;&gt;Node2 -->
<g id="edge1_Node000001_Node000002" class="edge">
<title>Node1&#45;&gt;Node2</title>
<g id="a_edge1_Node000001_Node000002"><a xlink:title=" ">
<path fill="none" stroke="#63b8ff" d="M45.23,-111.59C41.18,-104.55 35.51,-94.67 30.53,-86"/>
<polygon fill="#63b8ff" stroke="#63b8ff" points="33.73,-84.54 25.72,-77.61 27.66,-88.03 33.73,-84.54"/>
</a>
</g>
</g>
<!-- Node4 -->
<g id="Node000004" class="node">
<title>Node4</title>
<g id="a_Node000004"><a xlink:title=" ">
<polygon fill="#e0e0e0" stroke="#999999" points="109.38,-76 55.88,-76 55.88,-56 109.38,-56 109.38,-76"/>
<text xml:space="preserve" text-anchor="middle" x="82.62" y="-62.5" font-family="Helvetica,sans-Serif" font-size="10.00">iostream</text>
</a>
</g>
</g>
<!-- Node1&#45;&gt;Node4 -->
<g id="edge3_Node000001_Node000004" class="edge">
<title>Node1&#45;&gt;Node4</title>
<g id="a_edge3_Node000001_Node000004"><a xlink:title=" ">
<path fill="none" stroke="#63b8ff" d="M56.2,-111.59C60.37,-104.55 66.23,-94.67 71.37,-86"/>
<polygon fill="#63b8ff" stroke="#63b8ff" points="74.26,-87.99 76.34,-77.6 68.23,-84.42 74.26,-87.99"/>
</a>
</g>
</g>
<!-- Node3 -->
<g id="Node000003" class="node">
<title>Node3</title>
<g id="a_Node000003"><a xlink:title=" ">
<polygon fill="#e0e0e0" stroke="#999999" points="39.25,-20 0,-20 0,0 39.25,0 39.25,-20"/>
<text xml:space="preserve" text-anchor="middle" x="19.62" y="-6.5" font-family="Helvetica,sans-Serif" font-size="10.00">limits</text>
</a>
</g>
</g>
<!-- Node2&#45;&gt;Node3 -->
<g id="edge2_Node000002_Node000003" class="edge">
<title>Node2&#45;&gt;Node3</title>
<g id="a_edge2_Node000002_Node000003"><a xlink:title=" ">
<path fill="none" stroke="#63b8ff" d="M19.62,-55.59C19.62,-49.01 19.62,-39.96 19.62,-31.73"/>
<polygon fill="#63b8ff" stroke="#63b8ff" points="23.13,-31.81 19.63,-21.81 16.13,-31.81 23.13,-31.81"/>
</a>
</g>
</g>
</g>
</svg>
