<?xml version="1.0" encoding="UTF-8" standalone="no"?>
<!DOCTYPE svg PUBLIC "-//W3C//DTD SVG 1.1//EN"
 "http://www.w3.org/Graphics/SVG/1.1/DTD/svg11.dtd">
<!-- Generated by graphviz version 14.0.2 (20251019.1705)
 -->
<!-- Title: pid.cpp Pages: 1 -->
<svg width="191pt" height="140pt"
 viewBox="0.00 0.00 191.00 140.00" xmlns="http://www.w3.org/2000/svg" xmlns:xlink="http://www.w3.org/1999/xlink">
<g id="graph0" class="graph" transform="scale(1 1) rotate(0) translate(4 136)">
<title>pid.cpp</title>
<!-- Node1 -->
<g id="Node000001" class="node">
<title>Node1</title>
<g id="a_Node000001"><a xlink:title=" ">
<polygon fill="#999999" stroke="#666666" points="107.38,-132 59.88,-132 59.88,-112 107.38,-112 107.38,-132"/>
<text xml:space="preserve" text-anchor="middle" x="83.62" y="-118.5" font-family="Helvetica,sans-Serif" font-size="10.00">pid.cpp</text>
</a>
</g>
</g>
<!-- Node2 -->
<g id="Node000002" class="node">
<title>Node2</title>
<g id="a_Node000002"><a xlink:href="pid_8h.html" target="_top" xlink:title=" ">
<polygon fill="white" stroke="#666666" points="38.12,-76 1.12,-76 1.12,-56 38.12,-56 38.12,-76"/>
<text xml:space="preserve" text-anchor="middle" x="19.62" y="-62.5" font-family="Helvetica,sans-Serif" font-size="10.00">pid.h</text>
</a>
</g>
</g>
<!-- Node1&#45;&gt;Node2 -->
<g id="edge1_Node000001_Node000002" class="edge">
<title>Node1&#45;&gt;Node2</title>
<g id="a_edge1_Node000001_Node000002"><a xlink:title=" ">
<path fill="none" stroke="#63b8ff" d="M72.48,-111.59C63.3,-103.85 50.07,-92.69 39.14,-83.47"/>
<polygon fill="#63b8ff" stroke="#63b8ff" points="41.7,-81.05 31.8,-77.27 37.19,-86.4 41.7,-81.05"/>
</a>
</g>
</g>
<!-- Node4 -->
<g id="Node000004" class="node">
<title>Node4</title>
<g id="a_Node000004"><a xlink:title=" ">
<polygon fill="#e0e0e0" stroke="#999999" points="111.5,-76 55.75,-76 55.75,-56 111.5,-56 111.5,-76"/>
<text xml:space="preserve" text-anchor="middle" x="83.62" y="-62.5" font-family="Helvetica,sans-Serif" font-size="10.00">algorithm</text>
</a>
</g>
</g>
<!-- Node1&#45;&gt;Node4 -->
<g id="edge3_Node000001_Node000004" class="edge">
<title>Node1&#45;&gt;Node4</title>
<g id="a_edge3_Node000001_Node000004"><a xlink:title=" ">
<path fill="none" stroke="#63b8ff" d="M83.62,-111.59C83.62,-105.01 83.62,-95.96 83.62,-87.73"/>
<polygon fill="#63b8ff" stroke="#63b8ff" points="87.13,-87.81 83.63,-77.81 80.13,-87.81 87.13,-87.81"/>
</a>
</g>
</g>
<!-- Node5 -->
<g id="Node000005" class="node">
<title>Node5</title>
<g id="a_Node000005"><a xlink:title=" ">
<polygon fill="#e0e0e0" stroke="#999999" points="183.38,-76 129.88,-76 129.88,-56 183.38,-56 183.38,-76"/>
<text xml:space="preserve" text-anchor="middle" x="156.62" y="-62.5" font-family="Helvetica,sans-Serif" font-size="10.00">iostream</text>
</a>
</g>
</g>
<!-- Node1&#45;&gt;Node5 -->
<g id="edge4_Node000001_Node000005" class="edge">
<title>Node1&#45;&gt;Node5</title>
<g id="a_edge4_Node000001_Node000005"><a xlink:title=" ">
<path fill="none" stroke="#63b8ff" d="M96.34,-111.59C107.02,-103.7 122.5,-92.24 135.11,-82.92"/>
<polygon fill="#63b8ff" stroke="#63b8ff" points="136.88,-85.96 142.84,-77.2 132.72,-80.33 136.88,-85.96"/>
</a>
</g>
</g>
<!-- Node3 -->
<g id="Node000003" class="node">
<title>Node3</title>
<g id="a_Node000003"><a xlink:title=" ">
<polygon fill="#e0e0e0" stroke="#999999" points="39.25,-20 0,-20 0,0 39.25,0 39.25,-20"/>
<text xml:space="preserve" text-anchor="middle" x="19.62" y="-6.5" font-family="Helvetica,sans-Serif" font-size="10.00">limits</text>
</a>
</g>
</g>
<!-- Node2&#45;&gt;Node3 -->
<g id="edge2_Node000002_Node000003" class="edge">
<title>Node2&#45;&gt;Node3</title>
<g id="a_edge2_Node000002_Node000003"><a xlink:title=" ">
<path fill="none" stroke="#63b8ff" d="M19.62,-55.59C19.62,-49.01 19.62,-39.96 19.62,-31.73"/>
<polygon fill="#63b8ff" stroke="#63b8ff" points="23.13,-31.81 19.63,-21.81 16.13,-31.81 23.13,-31.81"/>
</a>
</g>
</g>
</g>
</svg>
